HIERARCHY
ROOT Hips
{
	OFFSET	0.000000	0.000000	0.000000
	CHANNELS 6 Xposition Yposition Zposition Zrotation Xrotation Yrotation
	JOINT LeftUpLeg
	{
		OFFSET	12.830505	-7.049846	-1.643436
		CHANNELS 3 Zrotation Xrotation Yrotation
		JOINT LeftLeg
		{
			OFFSET	0.620834	-39.957500	-1.919341
			CHANNELS 3 Zrotation Xrotation Yrotation
			JOINT LeftFoot
			{
				OFFSET	-0.413890	-44.704761	-3.870325
				CHANNELS 3 Zrotation Xrotation Yrotation
				JOINT LeftFootHeel
				{
					OFFSET	0.164738	-8.918193	-6.555130
					CHANNELS 3 Zrotation Xrotation Yrotation
					End Site
					{
						OFFSET	-0.604053	0.000000	21.044330
					}
				}
			}
		}
	}
	JOINT RightUpLeg
	{
		OFFSET	-12.830505	-7.049846	-1.643436
		CHANNELS 3 Zrotation Xrotation Yrotation
		JOINT RightLeg
		{
			OFFSET	-0.620834	-39.957500	-1.919341
			CHANNELS 3 Zrotation Xrotation Yrotation
			JOINT RightFoot
			{
				OFFSET	0.413890	-44.704761	-3.870325
				CHANNELS 3 Zrotation Xrotation Yrotation
				JOINT RightFootHeel
				{
					OFFSET	-0.164738	-8.918193	-6.555130
					CHANNELS 3 Zrotation Xrotation Yrotation
					End Site
					{
						OFFSET	0.604053	0.000000	21.044330
					}
				}
			}
		}
	}
	JOINT Spine
	{
		OFFSET	0.000000	12.498170	1.820647
		CHANNELS 3 Zrotation Xrotation Yrotation
		JOINT Spine1
		{
			OFFSET	0.000000	7.620000	0.000000
			CHANNELS 3 Zrotation Xrotation Yrotation
			JOINT LeftShoulder
			{
				OFFSET	9.167800	29.136339	-5.551221
				CHANNELS 3 Zrotation Xrotation Yrotation
				JOINT LeftArm
				{
					OFFSET	12.133453	-3.880866	1.461963
					CHANNELS 3 Zrotation Xrotation Yrotation
					JOINT LeftForeArm
					{
						OFFSET	2.507115	-31.664908	-1.069404
						CHANNELS 3 Zrotation Xrotation Yrotation
						JOINT LeftHand
						{
							OFFSET	4.116172	-24.512624	5.009439
							CHANNELS 3 Zrotation Xrotation Yrotation
							End Site
							{
								OFFSET	-0.213136	-10.931856	2.182134
							}
						}
					}
				}
			}
			JOINT RightShoulder
			{
				OFFSET	-9.167800	29.136339	-5.551221
				CHANNELS 3 Zrotation Xrotation Yrotation
				JOINT RightArm
				{
					OFFSET	-12.133453	-3.880866	1.461963
					CHANNELS 3 Zrotation Xrotation Yrotation
					JOINT RightForeArm
					{
						OFFSET	-2.507115	-31.664908	-1.069404
						CHANNELS 3 Zrotation Xrotation Yrotation
						JOINT RightHand
						{
							OFFSET	-4.116172	-24.512624	5.009439
							CHANNELS 3 Zrotation Xrotation Yrotation
							End Site
							{
								OFFSET	0.213136	-10.931856	2.182134
							}
						}
					}
				}
			}
			JOINT Neck
			{
				OFFSET	0.000000	32.926272	-3.635654
				CHANNELS 3 Zrotation Xrotation Yrotation
				JOINT Head
				{
					OFFSET	0.000000	12.481178	4.646143
					CHANNELS 3 Zrotation Xrotation Yrotation
					End Site
					{
						OFFSET	0.000000	17.715204	-2.222063
					}
				}
			}
		}
	}
}
MOTION
Frames:     11
Frame Time: 0.016667
1.882721	103.134052	10.219613	4.780164	-0.412860	45.330902	-5.240847	-3.603870	-4.833113	3.600605	10.602188	-15.052278	0.665097	-0.162091	-20.270741	0.	0.	0.	-12.899179	-4.229785	4.239918	6.647313	19.292452	-45.675972	12.358435	-3.088246	-3.127606	0.	0.	0.	-0.000000	0.000000	0.000005	-10.594479	2.304876	16.648287	3.575838	2.777415	0.428631	28.702351	3.854782	1.376523	-48.228817	-19.728588	-36.529572	-1.864896	-5.522666	-11.439036	-9.984485	-3.583823	3.985906	-83.094124	-12.219199	-61.751572	-27.023172	-142.833817	-35.833397	-50.875244	-34.342148	-23.156298	-4.188397	-4.726142	18.953236	1.763166	0.109605	6.826675	
1.811898	103.136242	10.321710	4.833869	-0.375686	45.111530	-5.221383	-3.466017	-4.740232	3.589282	10.418058	-14.928403	0.593399	-0.098775	-20.273418	0.	0.	0.	-12.932405	-4.254280	4.281746	6.647872	19.322718	-45.573524	12.327589	-3.111099	-3.055816	0.	0.	0.	-0.000000	-0.000000	-0.000000	-10.400890	2.175646	16.439583	3.552188	2.837002	0.489950	28.486359	4.148748	1.599858	-48.109772	-19.728609	-37.159935	-1.968186	-5.509531	-11.541305	-9.902702	-3.375921	4.115479	-82.385529	-13.009433	-61.727253	-27.005035	-142.860870	-36.189575	-50.542290	-34.284348	-23.409996	-4.128966	-4.550457	18.928509	1.685893	0.190358	6.794076	
1.769761	103.131853	10.392159	4.833966	-0.375530	44.954891	-5.198353	-3.465526	-4.644029	3.635405	10.467253	-14.928410	0.553623	-0.149949	-20.221430	0.	0.	0.	-12.909587	-4.323442	4.290780	6.668334	19.375887	-45.449554	12.281448	-3.118065	-3.046833	0.	0.	0.	0.000001	0.000000	-0.000005	-10.207690	2.145041	16.312260	3.519222	2.807773	0.485808	28.522598	3.653158	1.149639	-47.840912	-19.697664	-36.727032	-2.051079	-5.483557	-11.638216	-9.858379	-3.217930	4.194770	-82.034927	-13.522084	-61.755844	-26.989357	-142.957275	-36.644176	-50.481461	-34.169762	-23.678837	-4.156500	-4.492231	18.893488	1.655632	0.251197	6.781389	
1.723454	103.117493	10.450246	4.862806	-0.432127	44.783009	-5.191536	-3.489296	-4.551746	3.725920	10.681615	-14.975098	0.517157	-0.283981	-20.108347	0.	0.	0.	-12.860496	-4.355323	4.346112	6.672533	19.450241	-45.338215	12.253569	-3.128953	-3.036102	0.	0.	0.	0.000000	-0.000000	0.000001	-9.985584	2.187321	16.181248	3.499409	2.789500	0.488697	28.462549	3.526096	0.970769	-47.694328	-19.698694	-36.863861	-2.094209	-5.488163	-11.769863	-9.835357	-3.096583	4.245820	-81.676735	-14.107272	-61.667183	-27.006020	-143.063034	-37.258995	-50.376926	-34.078388	-24.058973	-4.139247	-4.456416	18.856613	1.596318	0.328880	6.786748	
1.723449	103.117629	10.492087	4.862798	-0.408347	44.781826	-5.191536	-3.489296	-4.551746	3.725920	10.681615	-14.975098	0.517157	-0.283981	-20.108347	0.	0.	0.	-12.865585	-4.416069	4.190818	6.642465	19.525261	-45.187351	12.243564	-3.134964	-3.033946	0.	0.	0.	0.000000	-0.000000	0.000001	-9.783498	2.211312	15.847214	3.282768	2.841392	0.812861	28.462543	3.526094	0.970770	-47.694328	-19.698694	-36.863861	-2.094210	-5.488162	-11.769868	-10.018314	-3.120668	4.573321	-81.676735	-14.107268	-61.667183	-27.006023	-143.063034	-37.258991	-50.376926	-34.078384	-24.058969	-4.170219	-4.455162	18.848516	1.460561	0.391862	7.133277	
1.598955	103.049755	10.510555	4.854959	-0.442441	44.301773	-5.279065	-3.857405	-4.438448	3.979042	11.433346	-14.815046	0.437065	-0.673600	-19.962425	0.	0.	0.	-12.794222	-4.530489	4.468479	6.615836	19.545658	-45.007202	12.196961	-3.116001	-3.021735	0.	0.	0.	0.000000	0.000000	0.000003	-9.547815	2.193079	15.945854	3.466707	2.618666	0.505836	28.288517	3.299907	0.526984	-47.425915	-19.589327	-37.098034	-2.028886	-5.483802	-11.953505	-9.823656	-2.937528	4.247578	-80.820892	-15.542497	-61.345200	-27.081650	-143.376831	-38.551895	-49.524464	-33.967869	-24.785322	-4.152766	-4.446335	18.876629	1.588343	0.385268	6.912724	
1.533168	103.020871	10.558483	4.842761	-0.449090	43.949081	-5.280088	-3.987868	-4.395602	4.045102	11.732904	-14.584838	0.402787	-0.851047	-19.904821	0.	0.	0.	-12.736699	-4.595110	4.815254	6.615837	19.545656	-45.007202	12.210624	-3.106059	-3.023092	0.	0.	0.	-0.000000	-0.000000	-0.000000	-9.320816	2.180234	15.846613	3.435353	2.507818	0.536018	28.165892	3.250513	0.338298	-47.281540	-19.474527	-37.157093	-1.998102	-5.530055	-11.903920	-9.793973	-2.839358	4.254519	-80.285286	-16.413685	-61.149639	-27.153677	-143.615845	-39.157421	-49.004799	-33.922253	-25.226297	-4.043277	-4.406517	18.958559	1.547792	0.403009	6.999356	
1.454942	103.002616	10.619335	4.826833	-0.464238	43.496853	-5.224658	-4.030263	-4.271378	4.052648	11.887481	-14.399933	0.372530	-0.984008	-19.771084	0.	0.	0.	-12.641550	-4.716200	4.899571	6.447109	19.524942	-44.630760	12.172854	-3.007127	-3.037147	0.	0.	0.	-0.000000	0.000000	0.000001	-9.070272	2.116545	15.772189	3.391266	2.423559	0.562705	28.008713	3.290012	0.177990	-47.115406	-19.358074	-37.136776	-1.947835	-5.602444	-11.754528	-9.719720	-2.646375	4.311329	-79.728149	-17.321089	-60.970894	-27.221235	-143.824509	-39.787811	-48.565502	-33.921879	-25.732328	-3.888157	-4.281829	19.020731	1.498356	0.427102	7.122665	
1.454940	103.002674	10.661137	4.826824	-0.440457	43.495678	-5.224658	-4.030263	-4.271378	4.052648	11.887481	-14.399933	0.372530	-0.984008	-19.771084	0.	0.	0.	-12.641550	-4.716200	4.899571	6.447109	19.524942	-44.630760	12.172854	-3.007127	-3.037147	0.	0.	0.	-0.000000	0.000000	0.000001	-9.070272	2.116545	15.772189	3.391266	2.423559	0.562705	28.008713	3.290012	0.177990	-47.115406	-19.358074	-37.136776	-1.947835	-5.602444	-11.754528	-9.719720	-2.646375	4.311329	-79.728149	-17.321089	-60.970894	-27.221235	-143.824509	-39.787811	-48.565502	-33.921879	-25.732328	-3.888157	-4.281829	19.020731	1.498356	0.427102	7.122665	
1.314566	102.993179	10.724716	4.796357	-0.488820	42.654636	-5.055752	-3.955331	-4.052841	3.933293	11.879833	-14.056066	0.361057	-1.111683	-19.476967	0.	0.	0.	-12.451815	-4.832520	5.196032	6.188956	19.405781	-44.160980	12.113033	-2.857412	-2.967322	0.	0.	0.	0.000000	-0.000000	0.000001	-8.705540	1.975484	15.565670	3.319231	2.309815	0.759664	27.705725	3.459298	-0.022508	-46.800327	-19.205805	-36.968071	-1.876149	-5.740137	-11.437190	-9.500596	-2.258600	4.597661	-78.788948	-18.679033	-60.713463	-27.232052	-144.186813	-40.746342	-47.897705	-33.876854	-26.406610	-3.527019	-4.012216	19.231674	1.452114	0.545955	7.213618	
1.229190	102.989245	10.781520	4.772027	-0.520622	42.002804	-4.892365	-3.816238	-3.830816	3.777170	11.741614	-13.821164	0.382821	-1.198182	-19.256001	0.	0.	0.	-12.415420	-4.816574	4.874981	5.886433	19.146835	-43.463490	12.009833	-2.605702	-2.683356	0.	0.	0.	-0.000000	0.000000	-0.000000	-8.357874	1.953113	15.006300	3.133930	2.193475	1.318484	27.452366	3.609093	-0.076297	-46.558849	-19.079891	-36.830971	-1.857219	-5.860398	-11.192639	-9.424712	-2.075644	5.249716	-78.161407	-19.491510	-60.564171	-27.170906	-144.498917	-41.377773	-48.040642	-33.128395	-27.511379	-3.245018	-3.827787	19.459949	1.354813	0.679750	7.544367	
